<?xml version="1.0" encoding="UTF-8" standalone="no"?>
<!-- Created with Inkscape (http://www.inkscape.org/) -->

<svg
   xmlns:dc="http://purl.org/dc/elements/1.1/"
   xmlns:cc="http://creativecommons.org/ns#"
   xmlns:rdf="http://www.w3.org/1999/02/22-rdf-syntax-ns#"
   xmlns:svg="http://www.w3.org/2000/svg"
   xmlns="http://www.w3.org/2000/svg"
   xmlns:sodipodi="http://sodipodi.sourceforge.net/DTD/sodipodi-0.dtd"
   xmlns:inkscape="http://www.inkscape.org/namespaces/inkscape"
   width="589.40546"
   height="546.16669"
   id="svg2"
   version="1.1"
   inkscape:version="0.48.3.1 r9886"
   sodipodi:docname="J0.svg">
  <defs
     id="defs4">
    <inkscape:path-effect
       effect="interpolate"
       id="path-effect3004"
       is_visible="true"
       trajectory="M 0,0 0,0"
       equidistant_spacing="true"
       steps="5" />
  </defs>
  <sodipodi:namedview
     id="base"
     pagecolor="#ffffff"
     bordercolor="#666666"
     borderopacity="1.0"
     inkscape:pageopacity="0.0"
     inkscape:pageshadow="2"
     inkscape:zoom="0.98994949"
     inkscape:cx="568.39051"
     inkscape:cy="73.104139"
     inkscape:document-units="px"
     inkscape:current-layer="layer1"
     showgrid="true"
     showguides="false"
     inkscape:window-width="1920"
     inkscape:window-height="1182"
     inkscape:window-x="0"
     inkscape:window-y="0"
     inkscape:window-maximized="1"
     fit-margin-top="0"
     fit-margin-left="0"
     fit-margin-right="0"
     fit-margin-bottom="0">
    <inkscape:grid
       type="xygrid"
       id="grid2985"
       empspacing="5"
       visible="true"
       enabled="true"
       snapvisiblegridlinesonly="true"
       originx="-31.537258px"
       originy="-490.83205px" />
  </sodipodi:namedview>
  <metadata
     id="metadata7">
    <rdf:RDF>
      <cc:Work
         rdf:about="">
        <dc:format>image/svg+xml</dc:format>
        <dc:type
           rdf:resource="http://purl.org/dc/dcmitype/StillImage" />
        <dc:title />
      </cc:Work>
    </rdf:RDF>
  </metadata>
  <g
     inkscape:label="Layer 1"
     inkscape:groupmode="layer"
     id="layer1"
     transform="translate(-31.537258,-15.363414)">
    <path
       style="opacity:0.09504131;fill:#000000;fill-opacity:1;stroke:none"
       d="m 40,172.36218 c 73.11318,-121.925135 110.259,-71.19465 215,-92.142856 37.78964,-7.557928 63.27022,-49.398372 102.14286,-60 129.43975,-35.30175 281.37662,129.266226 262.14285,254.285716 -6.93848,45.10013 -109.76896,44.80803 -135.71428,89.28571 -25.40776,43.55616 51.55111,103.20382 38.57143,142.14286 C 514.51148,528.82773 460.4382,553.24153 440,556.6479 236.45753,590.57164 348.73829,438.31761 218.57143,389.50504 179.07231,374.69287 62.081877,415.83198 42.857143,383.79075 10.98991,330.6787 58.482925,227.81095 40,172.36218 z"
       id="path3014"
       inkscape:connector-curvature="0" />
    <path
       style="fill:#ffffff;fill-opacity:1;stroke:none"
       d="m 290,252.36218 c 11.36495,-25.29846 39.65881,-38.27295 64.28571,-18.57143 C 433.37698,297.06377 276.32447,375.44199 290,252.36218"
       id="path3790"
       inkscape:connector-curvature="0" />
    <path
       sodipodi:type="arc"
       style="fill:#000000;fill-opacity:1;stroke:none"
       id="path3796"
       sodipodi:cx="195"
       sodipodi:cy="157.36218"
       sodipodi:rx="15"
       sodipodi:ry="15"
       d="m 210,157.36218 c 0,8.28427 -6.71573,15 -15,15 -8.28427,0 -15,-6.71573 -15,-15 0,-8.28427 6.71573,-15 15,-15 8.28427,0 15,6.71573 15,15 z"
       transform="matrix(0.33333333,0,0,0.33333333,150,79.908122)" />
    <text
       xml:space="preserve"
       style="font-size:40px;font-style:normal;font-weight:normal;line-height:125%;letter-spacing:0px;word-spacing:0px;fill:#000000;fill-opacity:1;stroke:none;font-family:Sans"
       x="215"
       y="152.36218"
       id="text3800"
       sodipodi:linespacing="125%"><tspan
         sodipodi:role="line"
         id="tspan3802"
         x="215"
         y="152.36218"
         style="font-size:22px;font-style:italic;font-variant:normal;font-weight:normal;font-stretch:normal;font-family:TeXGyrePagella;-inkscape-font-specification:TeXGyrePagella Italic">x</tspan></text>
    <path
       style="fill:none;stroke:#000000;stroke-width:1px;stroke-linecap:butt;stroke-linejoin:miter;stroke-opacity:1"
       d="m 220,132.36218 c -316.360171,29.06929 42.17814,298.74118 151.42857,271.42857 34.42757,-8.60689 70.27431,-79.41335 90,-105.71428 C 590.64663,125.78572 321.99326,147.47229 220,132.36218 z"
       id="path3836"
       inkscape:connector-curvature="0" />
  </g>
</svg>
